<svg xmlns="http://www.w3.org/2000/svg" viewBox="0 0 512 512">
  <defs>
    <linearGradient id="bg" x1="0" y1="0" x2="1" y2="1"><stop stop-color="#071A36"/><stop offset=".55" stop-color="#173B73"/><stop offset="1" stop-color="#5B2BBF"/></linearGradient>
    <linearGradient id="mark" x1="0" y1="0" x2="1" y2="1"><stop stop-color="#7DE7FF"/><stop offset=".5" stop-color="#FFFFFF"/><stop offset="1" stop-color="#BFA7FF"/></linearGradient>
  </defs>
  <rect width="512" height="512" rx="120" fill="url(#bg)"/>
  <circle cx="256" cy="256" r="184" fill="none" stroke="#FFFFFF" stroke-opacity=".10" stroke-width="3"/>
  <circle cx="256" cy="256" r="151" fill="#FFFFFF" fill-opacity=".045"/>
  <path d="M337 151c-25-25-59-38-96-38-57 0-103 31-103 76 0 43 34 65 94 78 38 8 55 17 55 37 0 19-20 31-52 31-35 0-61-13-82-38l-36 35c28 34 67 52 119 52 65 0 108-34 108-84 0-51-34-73-99-87-37-8-51-16-51-31 0-18 19-27 47-27 26 0 49 9 68 28z" fill="url(#mark)"/>
  <path d="M166 365c25 24 59 37 96 37 57 0 103-31 103-76 0-43-34-65-94-78-38-8-55-17-55-37 0-19 20-31 52-31 35 0 61 13 82 38l36-35c-28-34-67-52-119-52-65 0-108 34-108 84 0 51 34 73 99 87 37 8 51 16 51 31 0 18-19 27-47 27-26 0-49-9-68-28z" fill="#7DE7FF" fill-opacity=".28"/>
  <circle cx="391" cy="119" r="9" fill="#7DE7FF"/><circle cx="118" cy="393" r="7" fill="#BFA7FF"/>
</svg>